<svg width="37" height="35" viewBox="0 0 37 35" fill="none" xmlns="http://www.w3.org/2000/svg">
<path fill-rule="evenodd" clip-rule="evenodd" d="M25.7913 24.8097C25.5673 24.9339 25.3138 24.9995 25.0557 25C24.7855 24.999 24.5206 24.9269 24.2894 24.7913L14.5061 19.1122V23C14.5061 24.1046 13.6107 25 12.5061 25C11.4015 25 10.5061 24.1046 10.5061 23V12C10.5061 10.8954 11.4015 10 12.5061 10C13.6107 10 14.5061 10.8954 14.5061 12V15.8862L24.2877 10.2088C24.5137 10.0754 24.7724 10.0033 25.0369 10.0001C25.3014 9.99689 25.562 10.0626 25.7913 10.1904C26.2958 10.4676 26.6094 11.004 26.6094 11.5897V23.4103C26.6094 23.9944 26.2958 24.5325 25.7913 24.8097Z" fill="white" fill-opacity="0.35"/>
</svg>
