<svg width="37" height="35" viewBox="0 0 37 35" fill="none" xmlns="http://www.w3.org/2000/svg">
<path fill-rule="evenodd" clip-rule="evenodd" d="M11.2087 24.8097C11.4327 24.9339 11.6862 24.9995 11.9443 25C12.2145 24.999 12.4794 24.9269 12.7106 24.7913L22.494 19.1122V23C22.494 24.1046 23.3894 25 24.494 25C25.5986 25 26.494 24.1046 26.494 23V12C26.494 10.8954 25.5986 10 24.494 10C23.3894 10 22.494 10.8954 22.494 12V15.8863L12.7123 10.2088C12.4863 10.0754 12.2276 10.0033 11.9631 10.0001C11.6986 9.99689 11.438 10.0626 11.2087 10.1904C10.7042 10.4676 10.3906 11.004 10.3906 11.5897V23.4103C10.3906 23.9944 10.7042 24.5325 11.2087 24.8097Z" fill="white" fill-opacity="0.35"/>
</svg>
