<svg width="430" height="932" viewBox="0 0 430 932" fill="none" xmlns="http://www.w3.org/2000/svg">
<path d="M259.155 -151.966C377.938 -139.561 444.721 -16.8619 536.445 57.5968C627.342 131.384 760.148 173.614 795.594 283.497C831.021 393.32 744.84 501.211 715.518 612.724C685.859 725.516 703.687 857.351 622.263 942.678C539.469 1029.44 407.566 1051.27 286.41 1062.4C171.386 1072.97 57.2469 1050.88 -47.8734 1004.25C-151.081 958.463 -244.728 892.046 -306.381 799.422C-367.24 707.992 -386.911 598.721 -390.278 489.846C-393.656 380.629 -387.249 266.289 -325.695 174.891C-265.004 84.7749 -153.429 49.2454 -57.4015 -4.42191C46.15 -62.294 140.413 -164.367 259.155 -151.966Z" fill="url(#paint0_radial_4205_4347)"/>
<defs>
<radialGradient id="paint0_radial_4205_4347" cx="0" cy="0" r="1" gradientUnits="userSpaceOnUse" gradientTransform="translate(206.5 456) rotate(90) scale(609 597.5)">
<stop stop-color="#CEFF9E" stop-opacity="0.75"/>
<stop offset="0.805629" stop-color="#1872B2"/>
</radialGradient>
</defs>
</svg>
