<svg width="17" height="15" viewBox="0 0 17 15" fill="none" xmlns="http://www.w3.org/2000/svg">
<path fill-rule="evenodd" clip-rule="evenodd" d="M16.5146 2C16.5146 0.895431 15.6192 0 14.5146 0C13.4101 0 12.5146 0.895431 12.5146 2V5.88697L2.59607 0.20878C2.36697 0.0754154 2.10462 0.00335344 1.83644 0.0001268C1.56826 -0.00309984 1.3041 0.0626271 1.07156 0.190438C0.56013 0.46761 0.242188 1.00402 0.242188 1.58975V13.4104C0.242188 13.9945 0.56013 14.5325 1.07156 14.8097C1.29869 14.934 1.55573 14.9996 1.81741 15C2.09137 14.999 2.35991 14.9269 2.59436 14.7913L12.5146 9.11155V13C12.5146 14.1046 13.4101 15 14.5146 15C15.6192 15 16.5146 14.1046 16.5146 13V2Z" fill="white" fill-opacity="0.5"/>
</svg>
