<svg width="36" height="36" viewBox="0 0 36 36" fill="none" xmlns="http://www.w3.org/2000/svg">
<circle cx="18" cy="18" r="18" fill="black" fill-opacity="0.5"/>
<path d="M18 28C17.7667 28 17.5293 27.9599 17.288 27.8798C17.0467 27.7996 16.834 27.6714 16.65 27.495L14.925 25.9802C13.1583 24.4253 11.5623 22.8825 10.137 21.352C8.71167 19.8214 7.99933 18.1341 8 16.29C8 14.7831 8.525 13.5248 9.575 12.5149C10.625 11.505 11.9333 11 13.5 11C14.3833 11 15.2167 11.1802 16 11.5405C16.7833 11.9009 17.45 12.394 18 13.0198C18.55 12.3946 19.2167 11.9019 20 11.5415C20.7833 11.1811 21.6167 11.0006 22.5 11C24.0667 11 25.375 11.505 26.425 12.5149C27.475 13.5248 28 14.7831 28 16.29C28 18.1334 27.2917 19.8246 25.875 21.3635C24.4583 22.9024 22.85 24.4493 21.05 26.0042L19.35 27.495C19.1667 27.6714 18.9543 27.7996 18.713 27.8798C18.4717 27.9599 18.234 28 18 28ZM17.05 14.9434C16.5667 14.2862 16.05 13.7851 15.5 13.4401C14.95 13.0951 14.2833 12.923 13.5 12.9236C12.5 12.9236 11.6667 13.2442 11 13.8854C10.3333 14.5266 10 15.3281 10 16.29C10 17.1235 10.3083 18.0094 10.925 18.9474C11.5417 19.8855 12.2793 20.7951 13.138 21.6761C13.996 22.5578 14.8793 23.3833 15.788 24.1528C16.6967 24.9222 17.434 25.5554 18 26.0523C18.5667 25.5554 19.3043 24.9222 20.213 24.1528C21.1217 23.3833 22.005 22.5578 22.863 21.6761C23.721 20.7944 24.4583 19.8849 25.075 18.9474C25.6917 18.01 26 17.1242 26 16.29C26 15.3281 25.6667 14.5266 25 13.8854C24.3333 13.2442 23.5 12.9236 22.5 12.9236C21.7167 12.9236 21.05 13.0961 20.5 13.4411C19.95 13.786 19.4333 14.2868 18.95 14.9434C18.8333 15.1037 18.6917 15.224 18.525 15.3041C18.3583 15.3843 18.1833 15.4243 18 15.4243C17.8167 15.4243 17.6417 15.3843 17.475 15.3041C17.3083 15.224 17.1667 15.1037 17.05 14.9434Z" fill="url(#paint0_linear_4238_4049)"/>
<defs>
<linearGradient id="paint0_linear_4238_4049" x1="8" y1="19.5" x2="28" y2="19.5" gradientUnits="userSpaceOnUse">
<stop stop-color="#84C2C9"/>
<stop offset="1" stop-color="#BFD25A"/>
</linearGradient>
</defs>
</svg>
