<svg width="17" height="15" viewBox="0 0 17 15" fill="none" xmlns="http://www.w3.org/2000/svg">
<path fill-rule="evenodd" clip-rule="evenodd" d="M0.485352 2C0.485352 0.895431 1.38078 0 2.48535 0C3.58992 0 4.48535 0.895431 4.48535 2V5.88697L14.4039 0.20878C14.633 0.0754154 14.8954 0.00335344 15.1636 0.0001268C15.4317 -0.00309984 15.6959 0.0626271 15.9284 0.190438C16.4399 0.46761 16.7578 1.00402 16.7578 1.58975V13.4104C16.7578 13.9945 16.4399 14.5325 15.9284 14.8097C15.7013 14.934 15.4443 14.9996 15.1826 15C14.9086 14.999 14.6401 14.9269 14.4056 14.7913L4.48535 9.11155V13C4.48535 14.1046 3.58992 15 2.48535 15C1.38078 15 0.485352 14.1046 0.485352 13V2Z" fill="white" fill-opacity="0.5"/>
</svg>
