<svg width="36" height="36" viewBox="0 0 36 36" fill="none" xmlns="http://www.w3.org/2000/svg">
<ellipse cx="18.2472" cy="18" rx="17.753" ry="18" fill="white" fill-opacity="0.15"/>
<path d="M18.246 28C18.0158 28 17.7817 27.9599 17.5437 27.8798C17.3057 27.7996 17.0959 27.6714 16.9144 27.495L15.213 25.9802C13.4706 24.4253 11.8964 22.8825 10.4906 21.352C9.08474 19.8214 8.38216 18.1341 8.38281 16.29C8.38281 14.7831 8.90063 13.5248 9.93626 12.5149C10.9719 11.505 12.2623 11 13.8075 11C14.6788 11 15.5007 11.1802 16.2733 11.5405C17.0459 11.9009 17.7035 12.394 18.246 13.0198C18.7884 12.3946 19.446 11.9019 20.2186 11.5415C20.9912 11.1811 21.8131 11.0006 22.6844 11C24.2296 11 25.52 11.505 26.5557 12.5149C27.5913 13.5248 28.1091 14.7831 28.1091 16.29C28.1091 18.1334 27.4105 19.8246 26.0132 21.3635C24.6159 22.9024 23.0296 24.4493 21.2542 26.0042L19.5775 27.495C19.3967 27.6714 19.1872 27.7996 18.9492 27.8798C18.7112 27.9599 18.4768 28 18.246 28ZM17.309 14.9434C16.8322 14.2862 16.3226 13.7851 15.7802 13.4401C15.2377 13.0951 14.5802 12.923 13.8075 12.9236C12.8212 12.9236 11.9993 13.2442 11.3418 13.8854C10.6842 14.5266 10.3554 15.3281 10.3554 16.29C10.3554 17.1235 10.6596 18.0094 11.2678 18.9474C11.876 19.8855 12.6036 20.7951 13.4505 21.6761C14.2968 22.5578 15.168 23.3833 16.0642 24.1528C16.9605 24.9222 17.6877 25.5554 18.246 26.0523C18.8049 25.5554 19.5324 24.9222 20.4287 24.1528C21.3249 23.3833 22.1962 22.5578 23.0424 21.6761C23.8887 20.7944 24.6159 19.8849 25.2241 18.9474C25.8324 18.01 26.1365 17.1242 26.1365 16.29C26.1365 15.3281 25.8077 14.5266 25.1502 13.8854C24.4926 13.2442 23.6707 12.9236 22.6844 12.9236C21.9118 12.9236 21.2542 13.0961 20.7117 13.4411C20.1693 13.786 19.6597 14.2868 19.183 14.9434C19.0679 15.1037 18.9282 15.224 18.7638 15.3041C18.5994 15.3843 18.4268 15.4243 18.246 15.4243C18.0651 15.4243 17.8925 15.3843 17.7281 15.3041C17.5638 15.224 17.424 15.1037 17.309 14.9434Z" fill="url(#paint0_linear_4046_2966)"/>
<defs>
<linearGradient id="paint0_linear_4046_2966" x1="8.38281" y1="19.5" x2="28.1091" y2="19.5" gradientUnits="userSpaceOnUse">
<stop stop-color="#84C2C9"/>
<stop offset="1" stop-color="#BFD25A"/>
</linearGradient>
</defs>
</svg>
