<svg width="145" height="50" viewBox="0 0 145 50" fill="none" xmlns="http://www.w3.org/2000/svg">
<rect width="145" height="50" rx="14" fill="white" fill-opacity="0.2"/>
<rect x="0.5" y="0.5" width="144" height="49" rx="13.5" stroke="white" stroke-opacity="0.5"/>
<path d="M27.2656 17.5058L19.0156 18.6285C18.2656 18.7045 17.75 19.377 17.75 20.1254V27.8204C17.4043 27.759 17.0293 27.759 16.625 27.8438C15.2012 28.218 14 29.4722 14 30.744C14 32.0158 15.2012 32.7789 16.625 32.4046C18.0488 32.0304 19.25 30.7528 19.25 29.481V23.049L27.5 21.9497V27.0252C27.1543 26.9638 26.7793 26.9901 26.375 27.0953C24.9512 27.4696 23.75 28.7238 23.75 29.9956C23.75 31.2673 24.9512 32.0304 26.375 31.6562C27.7988 31.282 29 30.0043 29 28.7326V19.0027C29 18.1052 28.165 17.4298 27.2656 17.5058Z" fill="white"/>
<g clip-path="url(#clip0_4773_8559)">
<path d="M42.216 25.78H46.088L44.184 20.452H44.152L42.216 25.78ZM43.352 19.076H45.032L49.496 30.5H47.816L46.568 27.06H41.736L40.456 30.5H38.904L43.352 19.076ZM51.391 26.436C51.391 26.82 51.439 27.1987 51.535 27.572C51.6417 27.9347 51.7963 28.26 51.999 28.548C52.2123 28.836 52.479 29.0653 52.799 29.236C53.1297 29.4067 53.5137 29.492 53.951 29.492C54.4097 29.492 54.799 29.4013 55.119 29.22C55.439 29.0387 55.7003 28.804 55.903 28.516C56.1057 28.2173 56.2497 27.8813 56.335 27.508C56.431 27.1347 56.479 26.756 56.479 26.372C56.479 25.9667 56.431 25.5773 56.335 25.204C56.239 24.82 56.0843 24.484 55.871 24.196C55.6683 23.908 55.4017 23.6787 55.071 23.508C54.7403 23.3267 54.3403 23.236 53.871 23.236C53.4123 23.236 53.023 23.3267 52.703 23.508C52.383 23.6893 52.127 23.9293 51.935 24.228C51.743 24.5267 51.6043 24.868 51.519 25.252C51.4337 25.636 51.391 26.0307 51.391 26.436ZM57.791 30.5H56.431V29.38H56.399C56.175 29.8387 55.823 30.1693 55.343 30.372C54.863 30.5747 54.335 30.676 53.759 30.676C53.119 30.676 52.559 30.5587 52.079 30.324C51.6097 30.0893 51.215 29.7747 50.895 29.38C50.5857 28.9853 50.351 28.5267 50.191 28.004C50.031 27.4813 49.951 26.9267 49.951 26.34C49.951 25.7533 50.0257 25.1987 50.175 24.676C50.335 24.1533 50.5697 23.7 50.879 23.316C51.199 22.9213 51.5937 22.612 52.063 22.388C52.543 22.1533 53.0977 22.036 53.727 22.036C53.9403 22.036 54.1697 22.0573 54.415 22.1C54.6603 22.1427 54.9057 22.2173 55.151 22.324C55.3963 22.42 55.6257 22.5533 55.839 22.724C56.063 22.884 56.2497 23.0867 56.399 23.332H56.431V19.076H57.791V30.5ZM60.8754 26.436C60.8754 26.82 60.9234 27.1987 61.0194 27.572C61.126 27.9347 61.2807 28.26 61.4834 28.548C61.6967 28.836 61.9634 29.0653 62.2834 29.236C62.614 29.4067 62.998 29.492 63.4354 29.492C63.894 29.492 64.2834 29.4013 64.6034 29.22C64.9234 29.0387 65.1847 28.804 65.3874 28.516C65.59 28.2173 65.734 27.8813 65.8194 27.508C65.9154 27.1347 65.9634 26.756 65.9634 26.372C65.9634 25.9667 65.9154 25.5773 65.8194 25.204C65.7234 24.82 65.5687 24.484 65.3554 24.196C65.1527 23.908 64.886 23.6787 64.5554 23.508C64.2247 23.3267 63.8247 23.236 63.3554 23.236C62.8967 23.236 62.5074 23.3267 62.1874 23.508C61.8674 23.6893 61.6114 23.9293 61.4194 24.228C61.2274 24.5267 61.0887 24.868 61.0034 25.252C60.918 25.636 60.8754 26.0307 60.8754 26.436ZM67.2754 30.5H65.9154V29.38H65.8834C65.6594 29.8387 65.3074 30.1693 64.8274 30.372C64.3474 30.5747 63.8194 30.676 63.2434 30.676C62.6034 30.676 62.0434 30.5587 61.5634 30.324C61.094 30.0893 60.6994 29.7747 60.3794 29.38C60.07 28.9853 59.8354 28.5267 59.6754 28.004C59.5154 27.4813 59.4354 26.9267 59.4354 26.34C59.4354 25.7533 59.51 25.1987 59.6594 24.676C59.8194 24.1533 60.054 23.7 60.3634 23.316C60.6834 22.9213 61.078 22.612 61.5474 22.388C62.0274 22.1533 62.582 22.036 63.2114 22.036C63.4247 22.036 63.654 22.0573 63.8994 22.1C64.1447 22.1427 64.39 22.2173 64.6354 22.324C64.8807 22.42 65.11 22.5533 65.3234 22.724C65.5474 22.884 65.734 23.0867 65.8834 23.332H65.9154V19.076H67.2754V30.5ZM76.0129 25.78H79.8849L77.9809 20.452H77.9489L76.0129 25.78ZM77.1489 19.076H78.8289L83.2929 30.5H81.6129L80.3649 27.06H75.5329L74.2529 30.5H72.7009L77.1489 19.076ZM91.0439 30.5H89.7639V29.188H89.7319C89.4439 29.7 89.0759 30.0787 88.6279 30.324C88.1799 30.5587 87.6519 30.676 87.0439 30.676C86.4999 30.676 86.0465 30.6067 85.6839 30.468C85.3212 30.3187 85.0279 30.1107 84.8039 29.844C84.5799 29.5773 84.4199 29.2627 84.3239 28.9C84.2385 28.5267 84.1959 28.116 84.1959 27.668V22.228H85.5559V27.828C85.5559 28.34 85.7052 28.7453 86.0039 29.044C86.3025 29.3427 86.7132 29.492 87.2359 29.492C87.6519 29.492 88.0092 29.428 88.3079 29.3C88.6172 29.172 88.8732 28.9907 89.0759 28.756C89.2785 28.5213 89.4279 28.2493 89.5239 27.94C89.6305 27.62 89.6839 27.2733 89.6839 26.9V22.228H91.0439V30.5ZM94.0785 26.436C94.0785 26.82 94.1265 27.1987 94.2225 27.572C94.3292 27.9347 94.4838 28.26 94.6865 28.548C94.8998 28.836 95.1665 29.0653 95.4865 29.236C95.8172 29.4067 96.2012 29.492 96.6385 29.492C97.0972 29.492 97.4865 29.4013 97.8065 29.22C98.1265 29.0387 98.3878 28.804 98.5905 28.516C98.7932 28.2173 98.9372 27.8813 99.0225 27.508C99.1185 27.1347 99.1665 26.756 99.1665 26.372C99.1665 25.9667 99.1185 25.5773 99.0225 25.204C98.9265 24.82 98.7718 24.484 98.5585 24.196C98.3558 23.908 98.0892 23.6787 97.7585 23.508C97.4278 23.3267 97.0278 23.236 96.5585 23.236C96.0998 23.236 95.7105 23.3267 95.3905 23.508C95.0705 23.6893 94.8145 23.9293 94.6225 24.228C94.4305 24.5267 94.2918 24.868 94.2065 25.252C94.1212 25.636 94.0785 26.0307 94.0785 26.436ZM100.479 30.5H99.1185V29.38H99.0865C98.8625 29.8387 98.5105 30.1693 98.0305 30.372C97.5505 30.5747 97.0225 30.676 96.4465 30.676C95.8065 30.676 95.2465 30.5587 94.7665 30.324C94.2972 30.0893 93.9025 29.7747 93.5825 29.38C93.2732 28.9853 93.0385 28.5267 92.8785 28.004C92.7185 27.4813 92.6385 26.9267 92.6385 26.34C92.6385 25.7533 92.7132 25.1987 92.8625 24.676C93.0225 24.1533 93.2572 23.7 93.5665 23.316C93.8865 22.9213 94.2812 22.612 94.7505 22.388C95.2305 22.1533 95.7852 22.036 96.4145 22.036C96.6278 22.036 96.8572 22.0573 97.1025 22.1C97.3478 22.1427 97.5932 22.2173 97.8385 22.324C98.0838 22.42 98.3132 22.5533 98.5265 22.724C98.7505 22.884 98.9372 23.0867 99.0865 23.332H99.1185V19.076H100.479V30.5ZM104.011 20.74H102.651V19.076H104.011V20.74ZM102.651 22.228H104.011V30.5H102.651V22.228ZM107.11 26.372C107.11 26.8733 107.174 27.3213 107.302 27.716C107.44 28.1 107.627 28.4253 107.862 28.692C108.096 28.948 108.368 29.1453 108.678 29.284C108.998 29.4227 109.334 29.492 109.686 29.492C110.038 29.492 110.368 29.4227 110.678 29.284C110.998 29.1453 111.275 28.948 111.51 28.692C111.744 28.4253 111.926 28.1 112.054 27.716C112.192 27.3213 112.262 26.8733 112.262 26.372C112.262 25.8707 112.192 25.428 112.054 25.044C111.926 24.6493 111.744 24.3187 111.51 24.052C111.275 23.7853 110.998 23.5827 110.678 23.444C110.368 23.3053 110.038 23.236 109.686 23.236C109.334 23.236 108.998 23.3053 108.678 23.444C108.368 23.5827 108.096 23.7853 107.862 24.052C107.627 24.3187 107.44 24.6493 107.302 25.044C107.174 25.428 107.11 25.8707 107.11 26.372ZM105.67 26.372C105.67 25.764 105.755 25.1987 105.926 24.676C106.096 24.1427 106.352 23.684 106.694 23.3C107.035 22.9053 107.456 22.596 107.958 22.372C108.459 22.148 109.035 22.036 109.686 22.036C110.347 22.036 110.923 22.148 111.414 22.372C111.915 22.596 112.336 22.9053 112.678 23.3C113.019 23.684 113.275 24.1427 113.446 24.676C113.616 25.1987 113.702 25.764 113.702 26.372C113.702 26.98 113.616 27.5453 113.446 28.068C113.275 28.5907 113.019 29.0493 112.678 29.444C112.336 29.828 111.915 30.132 111.414 30.356C110.923 30.5693 110.347 30.676 109.686 30.676C109.035 30.676 108.459 30.5693 107.958 30.356C107.456 30.132 107.035 29.828 106.694 29.444C106.352 29.0493 106.096 28.5907 105.926 28.068C105.755 27.5453 105.67 26.98 105.67 26.372Z" fill="white"/>
</g>
<defs>
<clipPath id="clip0_4773_8559">
<rect width="92" height="39" fill="white" transform="translate(39 5.5)"/>
</clipPath>
</defs>
</svg>
