<svg width="143" height="40" viewBox="0 0 143 40" fill="none" xmlns="http://www.w3.org/2000/svg">
<rect y="0.875" width="142.75" height="39" rx="14" fill="white" fill-opacity="0.2"/>
<path d="M27.2656 12.8808L19.0156 14.0035C18.2656 14.0795 17.75 14.752 17.75 15.5004V23.1954C17.4043 23.134 17.0293 23.134 16.625 23.2188C15.2012 23.593 14 24.8472 14 26.119C14 27.3908 15.2012 28.1539 16.625 27.7796C18.0488 27.4054 19.25 26.1278 19.25 24.856V18.424L27.5 17.3247V22.4002C27.1543 22.3388 26.7793 22.3651 26.375 22.4703C24.9512 22.8446 23.75 24.0988 23.75 25.3706C23.75 26.6423 24.9512 27.4054 26.375 27.0312C27.7988 26.657 29 25.3793 29 24.1076V14.3777C29 13.4802 28.165 12.8048 27.2656 12.8808Z" fill="white"/>
<path d="M44.232 14.451H45.848L51.864 23.715H51.896V14.451H53.336V25.875H51.672L45.704 16.707H45.672V25.875H44.232V14.451ZM56.5629 21.747C56.5629 22.2483 56.6269 22.6963 56.7549 23.091C56.8935 23.475 57.0802 23.8003 57.3149 24.067C57.5495 24.323 57.8215 24.5203 58.1309 24.659C58.4509 24.7977 58.7869 24.867 59.1389 24.867C59.4909 24.867 59.8215 24.7977 60.1309 24.659C60.4509 24.5203 60.7282 24.323 60.9629 24.067C61.1975 23.8003 61.3789 23.475 61.5069 23.091C61.6455 22.6963 61.7149 22.2483 61.7149 21.747C61.7149 21.2457 61.6455 20.803 61.5069 20.419C61.3789 20.0243 61.1975 19.6937 60.9629 19.427C60.7282 19.1603 60.4509 18.9577 60.1309 18.819C59.8215 18.6803 59.4909 18.611 59.1389 18.611C58.7869 18.611 58.4509 18.6803 58.1309 18.819C57.8215 18.9577 57.5495 19.1603 57.3149 19.427C57.0802 19.6937 56.8935 20.0243 56.7549 20.419C56.6269 20.803 56.5629 21.2457 56.5629 21.747ZM55.1229 21.747C55.1229 21.139 55.2082 20.5737 55.3789 20.051C55.5495 19.5177 55.8055 19.059 56.1469 18.675C56.4882 18.2803 56.9095 17.971 57.4109 17.747C57.9122 17.523 58.4882 17.411 59.1389 17.411C59.8002 17.411 60.3762 17.523 60.8669 17.747C61.3682 17.971 61.7895 18.2803 62.1309 18.675C62.4722 19.059 62.7282 19.5177 62.8989 20.051C63.0695 20.5737 63.1549 21.139 63.1549 21.747C63.1549 22.355 63.0695 22.9203 62.8989 23.443C62.7282 23.9657 62.4722 24.4243 62.1309 24.819C61.7895 25.203 61.3682 25.507 60.8669 25.731C60.3762 25.9443 59.8002 26.051 59.1389 26.051C58.4882 26.051 57.9122 25.9443 57.4109 25.731C56.9095 25.507 56.4882 25.203 56.1469 24.819C55.8055 24.4243 55.5495 23.9657 55.3789 23.443C55.2082 22.9203 55.1229 22.355 55.1229 21.747ZM69.4675 14.451H71.5475L75.1475 24.051L78.7635 14.451H80.8435V25.875H79.4035V16.371H79.3715L75.8035 25.875H74.5075L70.9395 16.371H70.9075V25.875H69.4675V14.451ZM89.997 25.875H88.717V24.563H88.685C88.397 25.075 88.029 25.4537 87.581 25.699C87.133 25.9337 86.605 26.051 85.997 26.051C85.453 26.051 84.9997 25.9817 84.637 25.843C84.2743 25.6937 83.981 25.4857 83.757 25.219C83.533 24.9523 83.373 24.6377 83.277 24.275C83.1917 23.9017 83.149 23.491 83.149 23.043V17.603H84.509V23.203C84.509 23.715 84.6583 24.1203 84.957 24.419C85.2557 24.7177 85.6663 24.867 86.189 24.867C86.605 24.867 86.9623 24.803 87.261 24.675C87.5703 24.547 87.8263 24.3657 88.029 24.131C88.2317 23.8963 88.381 23.6243 88.477 23.315C88.5837 22.995 88.637 22.6483 88.637 22.275V17.603H89.997V25.875ZM92.8716 23.267C92.8823 23.5657 92.9516 23.8217 93.0796 24.035C93.2076 24.2377 93.373 24.403 93.5756 24.531C93.789 24.6483 94.0236 24.7337 94.2796 24.787C94.5463 24.8403 94.8183 24.867 95.0956 24.867C95.309 24.867 95.533 24.851 95.7676 24.819C96.0023 24.787 96.2156 24.7283 96.4076 24.643C96.6103 24.5577 96.7756 24.435 96.9036 24.275C97.0316 24.1043 97.0956 23.891 97.0956 23.635C97.0956 23.283 96.9623 23.0163 96.6956 22.835C96.429 22.6537 96.093 22.5097 95.6876 22.403C95.293 22.2857 94.861 22.1843 94.3916 22.099C93.9223 22.003 93.485 21.875 93.0796 21.715C92.685 21.5443 92.3543 21.3097 92.0876 21.011C91.821 20.7123 91.6876 20.2963 91.6876 19.763C91.6876 19.347 91.7783 18.9897 91.9596 18.691C92.1516 18.3923 92.3916 18.1523 92.6796 17.971C92.9783 17.779 93.309 17.6403 93.6716 17.555C94.045 17.459 94.413 17.411 94.7756 17.411C95.245 17.411 95.677 17.4537 96.0716 17.539C96.4663 17.6137 96.813 17.7523 97.1116 17.955C97.421 18.147 97.6663 18.4137 97.8476 18.755C98.029 19.0857 98.1356 19.5017 98.1676 20.003H96.8076C96.7863 19.7363 96.717 19.5177 96.5996 19.347C96.4823 19.1657 96.333 19.0217 96.1516 18.915C95.9703 18.8083 95.7676 18.7337 95.5436 18.691C95.3303 18.6377 95.1116 18.611 94.8876 18.611C94.685 18.611 94.477 18.627 94.2636 18.659C94.061 18.691 93.8743 18.7497 93.7036 18.835C93.533 18.9097 93.3943 19.0163 93.2876 19.155C93.181 19.283 93.1276 19.4537 93.1276 19.667C93.1276 19.9017 93.2076 20.099 93.3676 20.259C93.5383 20.4083 93.7516 20.5363 94.0076 20.643C94.2636 20.739 94.5516 20.8243 94.8716 20.899C95.1916 20.963 95.5116 21.0323 95.8316 21.107C96.173 21.1817 96.5036 21.2723 96.8236 21.379C97.1543 21.4857 97.4423 21.6297 97.6876 21.811C97.9436 21.9817 98.1463 22.2003 98.2956 22.467C98.4556 22.7337 98.5356 23.0643 98.5356 23.459C98.5356 23.9603 98.429 24.3763 98.2156 24.707C98.013 25.0377 97.741 25.3043 97.3996 25.507C97.069 25.7097 96.6903 25.8483 96.2636 25.923C95.8476 26.0083 95.4316 26.051 95.0156 26.051C94.557 26.051 94.1196 26.003 93.7036 25.907C93.2876 25.811 92.9196 25.6563 92.5996 25.443C92.2796 25.219 92.0236 24.931 91.8316 24.579C91.6396 24.2163 91.533 23.779 91.5116 23.267H92.8716ZM101.48 16.115H100.12V14.451H101.48V16.115ZM100.12 17.603H101.48V25.875H100.12V17.603ZM109.203 20.259C109.096 19.7363 108.872 19.331 108.531 19.043C108.189 18.755 107.731 18.611 107.155 18.611C106.664 18.611 106.253 18.7017 105.923 18.883C105.592 19.0643 105.325 19.3043 105.123 19.603C104.931 19.9017 104.792 20.2483 104.707 20.643C104.621 21.027 104.579 21.427 104.579 21.843C104.579 22.227 104.621 22.6003 104.707 22.963C104.803 23.3257 104.947 23.651 105.139 23.939C105.331 24.2163 105.581 24.4403 105.891 24.611C106.2 24.7817 106.568 24.867 106.995 24.867C107.667 24.867 108.189 24.691 108.563 24.339C108.947 23.987 109.181 23.491 109.267 22.851H110.659C110.509 23.875 110.125 24.6643 109.507 25.219C108.899 25.7737 108.067 26.051 107.011 26.051C106.381 26.051 105.821 25.9497 105.331 25.747C104.851 25.5443 104.445 25.2563 104.115 24.883C103.795 24.5097 103.549 24.067 103.379 23.555C103.219 23.0323 103.139 22.4617 103.139 21.843C103.139 21.2243 103.219 20.6483 103.379 20.115C103.539 19.571 103.779 19.1017 104.099 18.707C104.429 18.3017 104.84 17.987 105.331 17.763C105.821 17.5283 106.392 17.411 107.043 17.411C107.512 17.411 107.949 17.4697 108.355 17.587C108.771 17.6937 109.133 17.8643 109.443 18.099C109.763 18.3337 110.024 18.6323 110.227 18.995C110.429 19.347 110.557 19.7683 110.611 20.259H109.203Z" fill="white"/>
</svg>