<svg width="32" height="32" viewBox="0 0 32 32" fill="none" xmlns="http://www.w3.org/2000/svg">
<path d="M28.3 0.0124543L10.7 2.40749C9.1 2.56965 8 4.00418 8 5.60087V22.0168C7.2625 21.8859 6.4625 21.8859 5.6 22.0667C2.5625 22.8651 0 25.5408 0 28.2539C0 30.967 2.5625 32.5949 5.6 31.7966C8.6375 30.9982 11.2 28.2726 11.2 25.5595V11.8379L28.8 9.4928V20.3204C28.0625 20.1894 27.2625 20.2455 26.4 20.47C23.3625 21.2684 20.8 23.9441 20.8 26.6572C20.8 29.3703 23.3625 30.9982 26.4 30.1999C29.4375 29.4015 32 26.6759 32 23.9628V3.20583C32 1.29105 30.2188 -0.149709 28.3 0.0124543Z" fill="white"/>
</svg>
