<svg width="233" height="36" viewBox="0 0 233 36" fill="none" xmlns="http://www.w3.org/2000/svg">
<rect x="0.103516" width="232.793" height="36" rx="14" fill="url(#paint0_linear_4843_11950)"/>
<path d="M106.5 11.4C106.5 9.3254 106.5 8.2892 107.086 7.6446C107.672 7 108.614 7 110.5 7C112.386 7 113.328 7 113.914 7.6446C114.5 8.2892 114.5 9.3254 114.5 11.4V24.6C114.5 26.6746 114.5 27.7108 113.914 28.3554C113.328 29 112.386 29 110.5 29C108.614 29 107.672 29 107.086 28.3554C106.5 27.7108 106.5 26.6746 106.5 24.6V11.4ZM118.5 11.4C118.5 9.3254 118.5 8.2892 119.086 7.6446C119.672 7 120.614 7 122.5 7C124.386 7 125.328 7 125.914 7.6446C126.5 8.2892 126.5 9.3254 126.5 11.4V24.6C126.5 26.6746 126.5 27.7108 125.914 28.3554C125.328 29 124.386 29 122.5 29C120.614 29 119.672 29 119.086 28.3554C118.5 27.7108 118.5 26.6746 118.5 24.6V11.4Z" fill="#2A2A2A"/>
<defs>
<linearGradient id="paint0_linear_4843_11950" x1="0.103516" y1="18" x2="232.897" y2="18" gradientUnits="userSpaceOnUse">
<stop stop-color="#84C2C9"/>
<stop offset="1" stop-color="#BFD25A"/>
</linearGradient>
</defs>
</svg>
