<svg width="107" height="36" viewBox="0 0 107 36" fill="none" xmlns="http://www.w3.org/2000/svg">
<rect x="0.609375" width="105.781" height="36" rx="14" fill="url(#paint0_linear_4046_2960)"/>
<path d="M45.9154 29C45.5369 28.9993 45.165 28.9031 44.8365 28.7208C44.0967 28.3143 43.6367 27.5252 43.6367 26.6685V9.33162C43.6367 8.47254 44.0967 7.68581 44.8365 7.27929C45.1729 7.09183 45.555 6.99543 45.943 7.00017C46.3309 7.0049 46.7104 7.11059 47.0418 7.30619L62.3226 16.1755C62.6411 16.3691 62.9036 16.638 63.0856 16.9569C63.2675 17.2759 63.363 17.6344 63.363 17.9989C63.363 18.3633 63.2675 18.7219 63.0856 19.0408C62.9036 19.3597 62.6411 19.6286 62.3226 19.8222L47.0394 28.6939C46.7002 28.8927 46.3117 28.9985 45.9154 29Z" fill="#2A2A2A"/>
<defs>
<linearGradient id="paint0_linear_4046_2960" x1="0.609375" y1="18" x2="106.391" y2="18" gradientUnits="userSpaceOnUse">
<stop stop-color="#84C2C9"/>
<stop offset="1" stop-color="#BFD25A"/>
</linearGradient>
</defs>
</svg>
