<svg width="36" height="36" viewBox="0 0 36 36" fill="none" xmlns="http://www.w3.org/2000/svg">
<ellipse cx="17.753" cy="18" rx="17.753" ry="18" fill="white" fill-opacity="0.15"/>
<path d="M26.5563 11.6293C26.5067 11.5081 26.434 11.398 26.3423 11.3053L23.3833 8.30529C23.2923 8.20978 23.1835 8.1336 23.0632 8.08119C22.9428 8.02878 22.8134 8.00119 22.6825 8.00004C22.5515 7.99888 22.4216 8.02419 22.3004 8.07447C22.1792 8.12475 22.0691 8.199 21.9765 8.29289C21.8839 8.38679 21.8106 8.49844 21.761 8.62133C21.7114 8.74423 21.6865 8.87591 21.6876 9.00869C21.6887 9.14147 21.716 9.27269 21.7676 9.39469C21.8193 9.5167 21.8945 9.62704 21.9887 9.71929L23.264 11.0123H13.8092C12.5012 11.0123 11.2469 11.5391 10.322 12.4768C9.39718 13.4144 8.8776 14.6862 8.8776 16.0123V18.0123C8.8776 18.2775 8.98152 18.5319 9.16649 18.7194C9.35146 18.9069 9.60233 19.0123 9.86392 19.0123C10.1255 19.0123 10.3764 18.9069 10.5613 18.7194C10.7463 18.5319 10.8502 18.2775 10.8502 18.0123V16.0123C10.8502 15.2166 11.162 14.4536 11.7169 13.891C12.2718 13.3284 13.0244 13.0123 13.8092 13.0123H23.264L21.9887 14.3053C21.809 14.4939 21.7096 14.7465 21.7119 15.0087C21.7141 15.2709 21.8178 15.5217 22.0007 15.7071C22.1836 15.8925 22.4309 15.9977 22.6896 16C22.9482 16.0022 23.1973 15.9014 23.3833 15.7193L26.3423 12.7193C26.434 12.6265 26.5068 12.5164 26.5563 12.395C26.6059 12.2737 26.6314 12.1436 26.6313 12.0123M26.5563 11.6293C26.6056 11.7498 26.6311 11.8789 26.6313 12.0093L26.5563 11.6293ZM8.95256 23.6293C8.8775 23.812 8.85776 24.0132 8.89588 24.2073C8.934 24.4014 9.02823 24.5797 9.16659 24.7193L12.1255 27.7193C12.3116 27.9014 12.5607 28.0022 12.8193 28C13.0779 27.9977 13.3253 27.8925 13.5082 27.7071C13.691 27.5217 13.7948 27.2709 13.797 27.0087C13.7993 26.7465 13.6998 26.4939 13.5202 26.3053L12.2449 25.0123H21.6997C23.0076 25.0123 24.262 24.4855 25.1868 23.5478C26.1117 22.6101 26.6313 21.3384 26.6313 20.0123V18.0123C26.6313 17.7471 26.5274 17.4927 26.3424 17.3052C26.1574 17.1176 25.9065 17.0123 25.645 17.0123C25.3834 17.0123 25.1325 17.1176 24.9475 17.3052C24.7626 17.4927 24.6586 17.7471 24.6586 18.0123V20.0123C24.6586 20.8079 24.3469 21.571 23.792 22.1336C23.2371 22.6962 22.4845 23.0123 21.6997 23.0123H12.2449L13.5202 21.7193C13.6144 21.627 13.6895 21.5167 13.7412 21.3947C13.7929 21.2727 13.8201 21.1415 13.8213 21.0087C13.8224 20.8759 13.7974 20.7442 13.7478 20.6213C13.6983 20.4984 13.625 20.3868 13.5324 20.2929C13.4398 20.199 13.3297 20.1247 13.2085 20.0745C13.0872 20.0242 12.9574 19.9989 12.8264 20C12.6954 20.0012 12.566 20.0288 12.4457 20.0812C12.3254 20.1336 12.2165 20.2098 12.1255 20.3053L9.16659 23.3053M8.95256 23.6293C9.00181 23.5089 9.07386 23.3995 9.16462 23.3073L8.95256 23.6293Z" fill="url(#paint0_linear_4046_2953)"/>
<defs>
<linearGradient id="paint0_linear_4046_2953" x1="8.87695" y1="18" x2="26.6313" y2="18" gradientUnits="userSpaceOnUse">
<stop stop-color="#84C2C9"/>
<stop offset="1" stop-color="#BFD25A"/>
</linearGradient>
</defs>
</svg>
