<svg width="50" height="50" viewBox="0 0 50 50" fill="none" xmlns="http://www.w3.org/2000/svg">
<rect width="50" height="50" rx="14" fill="white" fill-opacity="0.2"/>
<rect x="0.5" y="0.5" width="49" height="49" rx="13.5" stroke="white" stroke-opacity="0.5"/>
<path d="M27.75 15.375H22.25V17.2083H27.75V15.375ZM24.0833 27.2917H25.9167V21.7917H24.0833V27.2917ZM31.4442 21.2325L32.7458 19.9308C32.3517 19.4633 31.9208 19.0233 31.4533 18.6383L30.1517 19.94C28.7308 18.8033 26.9433 18.125 25 18.125C20.4442 18.125 16.75 21.8192 16.75 26.375C16.75 30.9308 20.435 34.625 25 34.625C29.565 34.625 33.25 30.9308 33.25 26.375C33.25 24.4317 32.5717 22.6442 31.4442 21.2325ZM25 32.7917C21.4525 32.7917 18.5833 29.9225 18.5833 26.375C18.5833 22.8275 21.4525 19.9583 25 19.9583C28.5475 19.9583 31.4167 22.8275 31.4167 26.375C31.4167 29.9225 28.5475 32.7917 25 32.7917Z" fill="white"/>
</svg>
