<svg width="24" height="24" viewBox="0 0 24 24" fill="none" xmlns="http://www.w3.org/2000/svg">
<path d="M21.9163 21.9164L21.9163 20.3608L6.76065 5.2052L5.20505 6.7608L20.3607 21.9164L21.9163 21.9164ZM23.3329 23.3331L19.764 23.3331L1.07217 4.66031C0.942757 4.5152 0.842752 4.35496 0.772154 4.1796C0.701557 4.00424 0.666259 3.82142 0.666259 3.63114C0.666259 3.44083 0.696222 3.25648 0.756147 3.07807C0.816096 2.89967 0.924164 2.7351 1.08035 2.58436L2.60054 1.07232C2.7513 0.916132 2.91667 0.809433 3.09666 0.752222C3.27664 0.695013 3.45663 0.666408 3.63662 0.666408C3.8286 0.666408 4.01227 0.698768 4.18763 0.763487C4.36299 0.82818 4.52323 0.931124 4.66834 1.07232L23.3329 19.7642L23.3329 23.3331ZM5.9965 5.99665L5.20505 6.7608L6.76065 5.2052L5.9965 5.99665Z" fill="white"/>
</svg>
