<svg width="430" height="932" viewBox="0 0 430 932" fill="none" xmlns="http://www.w3.org/2000/svg">
<path d="M267.155 -143.966C385.938 -131.561 452.721 -8.86192 544.445 65.5968C635.342 139.384 768.148 181.614 803.594 291.497C839.021 401.32 752.84 509.211 723.518 620.724C693.859 733.516 711.687 865.351 630.263 950.678C547.469 1037.44 415.566 1059.27 294.41 1070.4C179.386 1080.97 65.2469 1058.88 -39.8734 1012.25C-143.081 966.463 -236.728 900.046 -298.381 807.422C-359.24 715.992 -378.911 606.721 -382.278 497.846C-385.656 388.629 -379.249 274.289 -317.695 182.891C-257.004 92.7749 -145.429 57.2454 -49.4015 3.57809C54.15 -54.294 148.413 -156.367 267.155 -143.966Z" fill="url(#paint0_radial_1747_12815)"/>
<defs>
<radialGradient id="paint0_radial_1747_12815" cx="0" cy="0" r="1" gradientUnits="userSpaceOnUse" gradientTransform="translate(214.5 464) rotate(90) scale(609 597.5)">
<stop stop-color="#1872B2"/>
<stop offset="1" stop-color="#CEFF9E" stop-opacity="0.75"/>
</radialGradient>
</defs>
</svg>
