<svg width="65" height="65" viewBox="0 0 65 65" fill="none" xmlns="http://www.w3.org/2000/svg">
<rect width="65" height="65" rx="32.5" fill="#BFD25A"/>
<path d="M40.4563 22.0086L28.3563 23.6551C27.2562 23.7666 26.5 24.7529 26.5 25.8506V37.1366C25.993 37.0465 25.443 37.0465 24.85 37.1709C22.7617 37.7197 21 39.5593 21 41.4246C21 43.2898 22.7617 44.409 24.85 43.8601C26.9383 43.3113 28.7 41.4374 28.7 39.5721V30.1386L40.8 28.5263V35.9702C40.293 35.8802 39.743 35.9188 39.15 36.0732C37.0617 36.622 35.3 38.4616 35.3 40.3268C35.3 42.1921 37.0617 43.3113 39.15 42.7624C41.2383 42.2135 43 40.3397 43 38.4744V24.204C43 22.8876 41.7754 21.8971 40.4563 22.0086Z" fill="white"/>
</svg>
