<svg width="20" height="22" viewBox="0 0 20 22" fill="none" xmlns="http://www.w3.org/2000/svg">
<path d="M2.31032 22C1.92653 21.9993 1.54954 21.9031 1.21642 21.7208C0.466315 21.3143 0 20.5252 0 19.6685V2.33162C0 1.47254 0.466315 0.685809 1.21642 0.279289C1.55747 0.0918332 1.94491 -0.00456619 2.33824 0.000166217C2.73157 0.00489863 3.11635 0.110589 3.45236 0.306191L18.9451 9.1755C19.268 9.36912 19.5342 9.63801 19.7187 9.95693C19.9032 10.2759 20 10.6344 20 10.9989C20 11.3633 19.9032 11.7219 19.7187 12.0408C19.5342 12.3597 19.268 12.6286 18.9451 12.8222L3.44986 21.6939C3.10599 21.8927 2.71214 21.9985 2.31032 22Z" fill="url(#paint0_linear_3073_17125)"/>
<defs>
<linearGradient id="paint0_linear_3073_17125" x1="0" y1="11" x2="20" y2="11" gradientUnits="userSpaceOnUse">
<stop stop-color="#84C2C9"/>
<stop offset="1" stop-color="#BFD25A"/>
</linearGradient>
</defs>
</svg>
