<svg width="142" height="36" viewBox="0 0 142 36" fill="none" xmlns="http://www.w3.org/2000/svg">
<rect width="142" height="36" rx="14" fill="url(#paint0_linear_3635_5130)"/>
<path d="M65.3103 29C64.9265 28.9993 64.5495 28.9031 64.2164 28.7208C63.4663 28.3143 63 27.5252 63 26.6685V9.33162C63 8.47254 63.4663 7.68581 64.2164 7.27929C64.5575 7.09183 64.9449 6.99543 65.3382 7.00017C65.7316 7.0049 66.1163 7.11059 66.4524 7.30619L81.9451 16.1755C82.268 16.3691 82.5342 16.638 82.7187 16.9569C82.9032 17.2759 83 17.6344 83 17.9989C83 18.3633 82.9032 18.7219 82.7187 19.0408C82.5342 19.3597 82.268 19.6286 81.9451 19.8222L66.4499 28.6939C66.106 28.8927 65.7121 28.9985 65.3103 29Z" fill="#2A2A2A"/>
<defs>
<linearGradient id="paint0_linear_3635_5130" x1="0" y1="18" x2="142" y2="18" gradientUnits="userSpaceOnUse">
<stop stop-color="#84C2C9"/>
<stop offset="1" stop-color="#BFD25A"/>
</linearGradient>
</defs>
</svg>
