<svg width="25" height="28" viewBox="0 0 25 28" fill="none" xmlns="http://www.w3.org/2000/svg">
<path d="M16.477 0.596558H8.52316V3.20641H16.477V0.596558ZM11.1744 17.5606H13.8257V9.73103H11.1744V17.5606ZM21.8193 8.93502L23.7017 7.08203C23.1317 6.41652 22.5086 5.79016 21.8326 5.24209L19.9502 7.09508C17.8954 5.47697 15.3104 4.51133 12.5001 4.51133C5.91165 4.51133 0.569336 9.77017 0.569336 16.2556C0.569336 22.7411 5.8984 28 12.5001 28C19.1017 28 24.4308 22.7411 24.4308 16.2556C24.4308 13.4892 23.4498 10.9446 21.8193 8.93502ZM12.5001 25.3901C7.36986 25.3901 3.22061 21.3057 3.22061 16.2556C3.22061 11.2056 7.36986 7.12118 12.5001 7.12118C17.6303 7.12118 21.7795 11.2056 21.7795 16.2556C21.7795 21.3057 17.6303 25.3901 12.5001 25.3901Z" fill="#21424F"/>
</svg>
