<svg width="46" height="40" viewBox="0 0 46 40" fill="none" xmlns="http://www.w3.org/2000/svg">
<rect x="0.75" y="0.75" width="44.5" height="39.25" rx="14" fill="white" fill-opacity="0.2"/>
<path d="M25.75 10.75H20.25V12.5833H25.75V10.75ZM22.0833 22.6667H23.9167V17.1667H22.0833V22.6667ZM29.4442 16.6075L30.7458 15.3058C30.3517 14.8383 29.9208 14.3983 29.4533 14.0133L28.1517 15.315C26.7308 14.1783 24.9433 13.5 23 13.5C18.4442 13.5 14.75 17.1942 14.75 21.75C14.75 26.3058 18.435 30 23 30C27.565 30 31.25 26.3058 31.25 21.75C31.25 19.8067 30.5717 18.0192 29.4442 16.6075ZM23 28.1667C19.4525 28.1667 16.5833 25.2975 16.5833 21.75C16.5833 18.2025 19.4525 15.3333 23 15.3333C26.5475 15.3333 29.4167 18.2025 29.4167 21.75C29.4167 25.2975 26.5475 28.1667 23 28.1667Z" fill="white"/>
</svg>
