<svg width="65" height="65" viewBox="0 0 65 65" fill="none" xmlns="http://www.w3.org/2000/svg">
<rect width="65" height="65" rx="32.5" fill="#BFD25A"/>
<path d="M36.3333 19H28.6667V21.5714H36.3333V19ZM31.2222 35.7143H33.7778V28H31.2222V35.7143ZM41.4828 27.2157L43.2972 25.39C42.7478 24.7343 42.1472 24.1171 41.4956 23.5771L39.6811 25.4029C37.7006 23.8086 35.2089 22.8571 32.5 22.8571C26.1494 22.8571 21 28.0386 21 34.4286C21 40.8186 26.1367 46 32.5 46C38.8633 46 44 40.8186 44 34.4286C44 31.7029 43.0544 29.1957 41.4828 27.2157ZM32.5 43.4286C27.555 43.4286 23.5556 39.4043 23.5556 34.4286C23.5556 29.4529 27.555 25.4286 32.5 25.4286C37.445 25.4286 41.4444 29.4529 41.4444 34.4286C41.4444 39.4043 37.445 43.4286 32.5 43.4286Z" fill="white"/>
</svg>
